<svg version="1.2" xmlns="http://www.w3.org/2000/svg" viewBox="0 0 214 71" width="214" height="71">
	<title>logo-svg</title>
	<style>
		.s0 { fill: #ff0055 } 
		.s1 { fill: #000000 } 
	</style>
	<path id="Layer" fill-rule="evenodd" class="s0" d="m9.8 49.7q0-0.1 0.1-0.7 0-0.5 0.1-1.3 0.1-0.7 0.2-1.6 0.1-0.9 0.2-1.7 0.1-0.8 0.2-1.4 0.1-0.6 0.1-0.8-0.2-0.1-0.3-0.2-0.2-0.1-0.2-0.2 0-0.2 0.2-0.3 0.2-0.2 0.3-0.2 0.1-0.8 0.2-2.1 0.1-1.3 0.3-2.9 0.1-1.5 0.5-3.1 0.3-1.6 0.8-2.9 0.6-1.3 1.3-2.1 0.8-0.8 1.9-0.8 1.1 0 1.9 0.7 0.7 0.7 1.2 1.8 0.4 1.1 0.7 2.5 0.2 1.4 0.3 2.7 0.2 1.4 0.2 2.6 0 1.2 0 1.9 0.1 0.4 0.3 0.6 0.2 0.1 0.4 0.2 0.2 0.1 0.4 0.1 0.2 0.1 0.2 0.4 0 0.3-0.4 0.5-0.4 0.1-0.7 0.1 0.2 1.9 0.4 3.6 0.3 1.8 0.7 3.6 0.1 0.3 0.2 0.7 0.1 0.3 0.1 0.7 0 0.2-0.2 0.3-0.2 0.2-0.4 0.3-0.3 0.1-0.5 0.1-0.3 0-0.5 0-0.6 0-1.1-0.2-0.4-0.3-0.6-1-0.4-1.9-0.7-3.9-0.4-1.8-0.4-3.5 0-0.3 0-0.6-1.2 0-2.4 0.1-1.3 0.1-2.4 0.4 0 0.4-0.2 1.5-0.1 1.1-0.2 2.4-0.2 1.2-0.3 2.4-0.2 1.1-0.2 1.6 0 0.2-0.3 0.4-0.3 0.2-0.6 0.2-0.3 0-0.6-0.2-0.2-0.2-0.2-0.7zm2.7-8.9q1.2-0.3 2.3-0.3 1.2-0.1 2.4-0.1-0.1-0.4-0.1-0.8 0.1-0.4 0.1-0.8 0-0.8-0.1-2 0-1.1-0.1-2.3-0.1-1.2-0.2-2.3-0.2-1.1-0.4-2-0.1-0.9-0.3-1.4-0.2-0.6-0.5-0.6-0.4 0.1-0.8 0.8-0.4 0.8-0.8 1.9-0.3 1.2-0.6 2.7-0.2 1.4-0.4 2.8-0.2 1.4-0.3 2.5-0.1 1.2-0.2 1.9zm12.1-0.5q0-1.1 0.1-2.7 0.1-1.6 0.2-3.4 0.1-1.7 0.3-3.3 0.2-1.5 0.5-2.4 0-0.3 0.4-0.4 0.3-0.1 0.6-0.1 0.5 0 0.8 0.2 0.3 0.1 0.3 0.7 0 2.6-0.3 5.3-0.3 2.7-0.3 5.4 0.4-0.7 1.1-1.1 0.7-0.3 1.6-0.3 1.1 0 1.9 0.4 0.8 0.5 1.3 1.2 0.5 0.7 0.7 1.7 0.3 0.9 0.3 1.9 0 0.5-0.2 1.3-0.1 0.9-0.3 1.8-0.2 0.9-0.5 1.7-0.4 0.9-0.8 1.6-0.5 0.7-1.1 1.2-0.6 0.4-1.3 0.4-0.2 0-0.4 0-0.2-0.1-0.5-0.2-0.2-0.1-0.4-0.2-0.2-0.1-0.2-0.3 0-0.3 0.3-0.4 0.3-0.1 0.5-0.1 0.7-0.3 1.2-1.2 0.5-0.9 0.8-2 0.4-1.1 0.5-2.2 0.2-1.1 0.2-1.8 0-0.4-0.1-1.1-0.1-0.6-0.4-1.3-0.2-0.6-0.6-1.1-0.4-0.5-1-0.5-0.7 0-1.1 0.8-0.4 0.7-0.6 1.6-0.3 1-0.4 2 0 1 0 1.5 0 0.4 0.1 0.8 0.1 0.3 0.3 0.7 0.1 0.3 0.3 0.7 0.1 0.4 0.1 0.7 0 0.2-0.2 0.3-0.1 0.2-0.3 0.2-0.2 0.1-0.5 0.1-0.2 0-0.3 0-0.8 0-1.2-0.3-0.3-0.4-0.5-1.2-0.5-1.6-0.7-3.3-0.2-1.6-0.2-3.3zm12.5 5.8v-1.3q0-0.8 0-2.2 0-1.3 0.1-3 0-1.6 0.1-3.4 0.2-1.7 0.3-3.3 0.1-1.6 0.3-2.8 0.2-1.3 0.4-1.9 0.2-0.3 0.5-0.4 0.3-0.1 0.7-0.1 0.5 0 0.9 0.2 0.3 0.3 0.3 0.9l-0.2 0.3q-0.5 3.3-0.7 6.7-0.1 3.5-0.2 6.9 0.4-0.6 0.8-1.1 0.5-0.6 1.1-1 0.5-0.4 1.2-0.7 0.6-0.3 1.4-0.3 1 0 1.7 0.6 0.6 0.6 1 1.6 0.5 1 0.7 2.2 0.2 1.1 0.3 2.3 0.1 1.2 0.1 2.3 0.1 1 0.2 1.7-0.3 0.4-0.8 0.4h-0.1q-0.2 0-0.5 0-0.3-0.1-0.4-0.3h0.1q-0.2-0.5-0.3-1.3-0.1-0.9-0.1-1.9-0.1-1-0.2-2.1-0.1-1.1-0.3-2-0.2-0.9-0.7-1.4-0.4-0.6-1.1-0.6h-0.1q-0.9 0-1.4 0.5-0.7 0.5-1 1.5-0.4 0.9-0.6 2-0.2 1.1-0.3 2.1-0.2 1.1-0.2 1.9-0.1 0.8-0.2 1.2 0 0.4-0.5 0.5-0.4 0.1-0.7 0.1-0.7 0-1.2-0.4-0.3-0.8-0.4-2 0-1.2 0-2.4zm14-1.9q0-1.4 0.3-2.7 0.3-1.3 0.5-2.5 0.1-0.4 0.5-0.5 0.4 0 0.7 0 0.4 0 0.7 0.1 0.2 0.1 0.3 0.1 0.1 0.1 0.1 0.2 0 1.3-0.3 2.5-0.3 1.2-0.3 2.5 0 0.5 0 0.9 0.1 0.4 0.2 0.8v0.4q0 0.1 0.1 0.2 0 0.1 0 0.2 0 0.3-0.4 0.4-0.3 0.1-0.6 0.1-0.5 0-0.8-0.2-0.4-0.2-0.6-0.6l-0.2-0.4q-0.2-0.3-0.2-0.7 0-0.5 0-0.8zm0.9-8.8v-0.3q0-0.7 0.4-1.2 0.3-0.6 1-0.6 0.1 0 0.2 0 0 0 0.1 0 0.2 0.1 0.5 0.2 0.3 0.1 0.3 0.3v0.1q-0.1 0.1-0.1 0.2 0 0.1-0.1 0.2h0.1q-0.2 0.4-0.3 0.7-0.1 0.3-0.3 0.5-0.1 0.1-0.3 0.2-0.2 0.1-0.6 0.1 0 0-0.2 0-0.1-0.1-0.3-0.1-0.2 0-0.3-0.1-0.1-0.1-0.1-0.2zm5.5 5.4q0-0.6 0.3-1.1 0.4-0.4 0.9-0.7 0.5-0.3 1.1-0.4 0.6-0.1 1.1-0.1 0.4 0 1 0.1 0.7 0.1 1.3 0.4 0.7 0.2 1.1 0.6 0.5 0.4 0.5 0.9 0 0.2-0.2 0.4-0.2 0.2-0.4 0.2-0.3 0-0.7-0.3-0.3-0.2-0.6-0.5-0.4-0.3-0.8-0.6-0.4-0.2-0.9-0.2-0.5 0-0.9 0.3-0.5 0.3-0.5 0.9 0 0.9 0.7 1.7 0.6 0.9 1.4 1.8 0.7 1 1.3 2 0.7 1 0.7 2.3 0 0.5-0.3 0.9-0.2 0.4-0.6 0.6-0.3 0.3-0.8 0.4-0.5 0.1-0.9 0.1-0.5 0-1.1-0.2-0.7-0.2-1.3-0.6-0.5-0.4-0.9-0.9-0.4-0.5-0.4-1 0-0.3 0.4-0.4 0.3 0 0.5 0 0.1 0 0.3 0 0.2 0.1 0.4 0.2 0.1 0 0.3 0.1 0.1 0.1 0.1 0.2 0.1 0.2 0.4 0.5 0.3 0.4 0.6 0.6 0.3 0.2 0.6 0.1 0.2 0 0.2-0.6 0-1.2-0.6-2.1-0.7-1-1.4-1.9-0.7-0.9-1.3-1.8-0.6-0.9-0.6-1.9zm10.3 5.3v-1.3q0-0.8 0-2.2 0.1-1.3 0.1-3 0.1-1.6 0.2-3.4 0.1-1.7 0.2-3.3 0.1-1.6 0.3-2.8 0.2-1.3 0.4-1.9 0.2-0.3 0.5-0.4 0.4-0.1 0.7-0.1 0.5 0 0.9 0.2 0.4 0.3 0.4 0.9l-0.3 0.3q-0.5 3.3-0.6 6.7-0.2 3.5-0.2 6.9 0.3-0.6 0.8-1.1 0.4-0.6 1-1 0.6-0.4 1.2-0.7 0.7-0.3 1.4-0.3 1 0 1.7 0.6 0.6 0.6 1.1 1.6 0.4 1 0.6 2.2 0.2 1.1 0.3 2.3 0.1 1.2 0.2 2.3 0 1 0.1 1.7-0.3 0.4-0.8 0.4h-0.1q-0.2 0-0.5 0-0.3-0.1-0.3-0.3-0.2-0.5-0.3-1.3-0.1-0.9-0.1-1.9 0-1-0.2-2.1-0.1-1.1-0.3-2-0.2-0.9-0.6-1.4-0.5-0.6-1.2-0.6h-0.1q-0.8 0-1.4 0.5-0.6 0.5-1 1.5-0.4 0.9-0.6 2-0.2 1.1-0.3 2.1-0.1 1.1-0.2 1.9 0 0.8-0.1 1.2-0.1 0.4-0.5 0.5-0.5 0.1-0.8 0.1-0.7 0-1.2-0.4-0.3-0.8-0.4-2 0-1.2 0-2.4zm14-1q0-1 0.2-2.4 0.3-1.4 0.8-2.6 0.5-1.3 1.4-2.1 0.9-0.9 2.3-0.9 1.2 0 1.9 0.7 0.6 0.7 0.6 2 0 0.8-0.3 1.7-0.3 1-0.9 1.9-0.5 0.8-1.3 1.4-0.8 0.6-1.7 0.6l-0.4-0.1q0 0.4 0.1 1.1 0.2 0.7 0.4 1.3 0.2 0.7 0.6 1.2 0.3 0.5 0.8 0.5 0.8 0 1.5-0.6 0.7-0.6 1.3-1.4 0.6-0.7 1.1-1.3 0.6-0.6 1-0.6 0.2 0 0.5 0.1 0.2 0 0.3 0.4 0 0.2-0.2 0.3-0.1 0.2-0.2 0.3-0.4 0.8-0.9 1.5-0.6 0.7-1.3 1.3-0.6 0.5-1.4 0.9-0.8 0.3-1.8 0.3-1.2 0-2.1-0.4-0.8-0.5-1.3-1.2-0.5-0.8-0.8-1.8-0.2-1-0.2-2.1zm2.6-1.1l0.4 0.4q0.3 0.3 0.6 0.1 0.3-0.1 0.5-0.5 0.3-0.4 0.5-1 0.2-0.6 0.3-1.2 0.2-0.6 0.3-1.1 0-0.6 0-1v-0.5q0 0 0-0.5-0.1-0.5-0.2-0.4-0.1 0.1-0.3-0.2-0.1-0.1-0.1-0.1-0.5 0-0.9 0.7-0.4 0.7-0.6 1.7-0.2 1-0.3 2-0.1 1.1-0.2 1.6zm9.6 6.5l0.4-0.4q-0.1-2.4-0.2-4.9-0.1-2.4-0.1-4.9 0-3 0.4-5.8 0.4-2.8 0.7-5.7 0-0.2 0.2-0.3 0.1-0.1 0.3-0.2 0.2-0.1 0.4-0.1 0.3 0 0.4 0 0.3 0 0.6 0.1 0.4 0.1 0.7 0.5 0 0.1 0 0.2 0.1 0.2 0.1 0.3 0 1.1-0.3 2.4-0.3 1.3-0.4 2.4-0.2 1.5-0.2 2.9 0 1.4 0 2.8v1.3q0.3-0.3 0.8-0.9 0.6-0.6 1.2-1.1 0.6-0.6 1.3-0.9 0.6-0.4 1.1-0.4 0.8 0 1.1 0.4 0.3 0.5 0.3 1.2 0 0.6-0.3 1.4-0.3 0.7-0.8 1.4-0.4 0.6-1 1.2-0.6 0.5-1.2 0.8 0.8 1 1.6 1.8 0.8 0.9 1.8 1.7v0.3q0 0.2-0.2 0.2-0.1 0.1-0.3 0.2-0.2 0-0.4 0-0.1 0-0.3 0-0.7 0-1.3-0.4-0.7-0.4-1.3-1-0.6-0.6-1.1-1.3-0.5-0.7-0.9-1.2 0.1 1.7 0.2 3.3 0.1 1.7 0.1 3.4 0 0.2-0.2 0.3-0.2 0.2-0.4 0.3-0.3 0-0.5 0.1-0.3 0-0.4 0-0.9 0-1.2-0.3-0.4-0.3-0.7-1.1zm3-6.9q0.4 0 0.9-0.3 0.5-0.3 1.1-0.8 0.5-0.5 1-1 0.4-0.5 0.7-1 0.3-0.5 0.3-0.7 0-0.3-0.4-0.3-0.1 0-0.6 0.4-0.4 0.4-1 1.1-0.5 0.6-1.1 1.3-0.6 0.7-0.9 1.3zm14.6-2.8q0-2.5 0.2-5 0.1-2.5 0.3-5 0.1-0.6 0.1-1.2 0-0.7 0.1-1.1 0.1-0.5 0.4-0.8 0.4-0.2 1-0.2 0.4 0 0.9 0.1 0.5 0.2 0.5 0.7 0 2-0.2 4-0.2 2-0.2 3.9 1.6-1.8 3.4-3.3 1.8-1.6 3.8-3.1 0.3-0.2 0.8-0.2 0.1 0 0.2 0 0.2 0 0.3 0 0.1 0.1 0.3 0.2 0.1 0 0.1 0.2 0 0.1-0.1 0.2-1.5 1.2-3 2.5-1.5 1.3-2.9 2.7 0.2 0.4 0.3 0.7 0.2 0.2 0.3 0.6 1.2 2.9 2.1 6 0.9 3 1.9 6 0.1 0.3 0.2 0.7 0.2 0.4 0.3 0.7 0.2 0.4 0.3 0.7 0.1 0.3 0.1 0.5 0 0.3-0.2 0.4-0.1 0.2-0.3 0.3-0.3 0.1-0.5 0.1-0.3 0-0.5 0-0.5 0-0.9-0.1-0.4-0.2-0.6-0.7-1.1-3.4-2.1-6.9-1-3.5-2.1-7-0.3 0.4-0.6 0.9-0.4 0.5-0.7 0.9 0 2.2 0.1 4.4 0.2 2.1 0.4 4.3 0.1 0.7 0.2 1.3 0.1 0.6 0.1 1.3 0 0.5-0.5 0.7-0.5 0.1-1.1 0.1-0.6 0-0.9-0.1-0.4-0.1-0.5-0.3-0.2-0.2-0.2-0.5 0-0.3-0.1-0.5-0.3-2.3-0.4-4.6-0.1-2.2-0.1-4.5zm14.4 2.4q0-0.2 0.1-0.7 0.1-0.5 0.1-1 0.1-0.5 0.2-0.9 0.2-0.4 0.3-0.5 0.1-0.1 0.4-0.2 0.3-0.2 0.6-0.2 0.3-0.1 0.6 0 0.3 0.1 0.3 0.4-0.2 0.3-0.3 0.9-0.2 0.7-0.3 1.4-0.1 0.7-0.1 1.4v0.3q0.1 0.8 0.2 1.5 0.1 0.6 0.4 1.1 0.3 0.4 0.7 0.4 1.1 0 1.9-0.9 0.9-0.9 1.5-2.3 0.7-1.4 1.2-2.9 0.5-1.5 0.8-2.7 0.1-0.3 0.5-0.4 0.3-0.1 0.7-0.1 0.3 0 0.6 0.2 0.3 0.1 0.4 0.3-0.3 2.5-0.5 4.9-0.1 2.5-0.1 5 0 0.5 0 0.9 0.1 0.4 0 0.7-0.1 0.3-0.4 0.4-0.3 0.2-1 0.2-0.1 0-0.3 0-0.3-0.1-0.5-0.1-0.3-0.1-0.4-0.2-0.2-0.2-0.2-0.3 0-1.1 0.1-2.3 0.1-1.1 0.2-2.2-0.4 0.6-0.9 1.2-0.4 0.5-1 1-0.6 0.4-1.2 0.7-0.7 0.3-1.5 0.3-1 0-1.7-0.5-0.6-0.5-0.9-1.3-0.3-0.8-0.4-1.7-0.1-0.9-0.1-1.8zm13.8-2.3q0-0.5 0.1-0.9 0.1-0.4 0.4-0.7 0.3-0.3 0.9-0.3 0.1 0 0.4 0.1 0.2 0 0.4 0.1 0.2 0 0.3 0.2 0.2 0.1 0.2 0.3v1.6q0.5-0.6 1.2-0.9 0.7-0.3 1.5-0.3 0.7 0 1.3 0.3 0.7 0.3 1.3 0.8 0.5 0.5 0.9 1.1 0.5 0.6 0.7 1.2 0.1-0.5 0.2-1.3 0.2-0.8 0.4-1.5 0.3-0.7 0.8-1.3 0.5-0.5 1.2-0.5 0.9 0 1.5 0.6 0.5 0.6 0.9 1.6 0.3 0.9 0.5 2.1 0.2 1.2 0.3 2.4 0.1 1.1 0.1 2.1v1.6q0 0.2-0.1 0.3-0.2 0.1-0.4 0.2-0.2 0-0.4 0-0.2 0.1-0.3 0.1-0.5 0-0.8-0.2-0.4-0.1-0.4-0.7v-1.3q0 0 0-1.7-0.1-1.7-0.1-1.9-0.1-0.1-0.2-1.6-0.2-1.6-0.3-1.2-0.2 0.3-0.5-0.5-0.4 0-0.5 0.4-0.2 0.4-0.3 1.1-0.1 0.6-0.2 1.3 0 0.7-0.1 1.3-0.1 0.7-0.3 1.1-0.3 0.4-0.7 0.4-0.4 0-0.7-0.4-0.3-0.4-0.7-1-0.3-0.6-0.6-1.3-0.3-0.7-0.7-1.3-0.4-0.6-0.8-1-0.4-0.4-0.9-0.4h-0.1q-0.6 0.1-1 0.5-0.4 0.5-0.6 1.1-0.2 0.6-0.2 1.4-0.1 0.7-0.1 1.3 0 0.5 0.1 1.2 0.1 0.5 0.1 0.9 0 0.2 0 0.4-0.1 0.6-0.4 1.1-0.2 0.4-1 0.4-0.3 0-0.7-0.1-0.5 0-0.6-0.4-0.4-0.6-0.5-1.5-0.2-0.9-0.3-1.9-0.1-1-0.1-1.9 0-1 0-1.7 0-0.4-0.1-0.9zm18.5 3.6q0-1 0.3-1.9 0.3-0.9 0.8-1.6 0.5-0.8 1.4-1.2 0.8-0.4 1.8-0.4 0.7 0 1.5 0.2 0.8 0.2 1.5 0.6 0.7 0.4 1.2 1 0.4 0.6 0.4 1.3 0 0.4-0.1 0.6-0.1 0.2-0.5 0.2l-0.2-0.1q0.5 1.2 0.8 2.4 0.3 1.2 0.6 2.4 0.1 0.2 0.2 0.4 0 0.2 0 0.4 0 0.2-0.1 0.4-0.2 0.1-0.4 0.2-0.2 0.1-0.4 0.1-0.2 0-0.4 0-0.6 0-1-0.2-0.3-0.2-0.4-0.6-0.1-0.4-0.2-0.9 0-0.4-0.1-0.9-0.2 0.6-0.5 1.1-0.2 0.5-0.6 1-0.4 0.4-0.9 0.7-0.6 0.2-1.2 0.2-1 0-1.7-0.5-0.6-0.6-1-1.4-0.4-0.8-0.6-1.8-0.2-0.9-0.2-1.7zm2.1-0.2q0 0.6 0.1 1.2 0 0.6 0.2 1.2 0.2 0.5 0.4 1.1 0.3 0.5 0.7 0.9 0.7-0.8 1.1-1.9 0.3-1.1 0.6-2.2 0.2-1 0.6-1.7 0.3-0.8 1.1-0.8 0.4 0 0.7 0.2-0.1-0.4-0.5-0.7-0.3-0.4-0.7-0.6-0.4-0.3-0.9-0.5-0.4-0.2-0.8-0.2-0.1 0-0.3 0-0.2 0.1-0.2 0-0.6 0.2-1 0.7-0.4 0.4-0.7 1-0.2 0.6-0.3 1.2-0.1 0.6-0.1 1.1zm10.6-3.9q0-0.6 0.2-1 0.2-0.4 0.9-0.4 0.3 0 0.7 0.1 0.4 0.1 0.4 0.4 0.2 0.9 0.2 1.9 0 1 0.1 1.9 0.3-0.7 0.9-1.4 0.5-0.8 1.2-1.5 0.6-0.6 1.4-1 0.8-0.4 1.6-0.4 0.1 0 0.3 0 0.1 0 0.3 0.1 0.1 0.1 0.1 0.2 0.1 0.1-0.1 0.2-0.1 0.2-0.3 0.2-0.2 0-0.3 0-0.1 0-0.3 0-1.1 0.5-1.8 1.5-0.8 1-1.3 2.2-0.5 1.2-0.7 2.5-0.2 1.3-0.2 2.6 0 0.6-0.3 0.8-0.3 0.1-0.9 0.1-0.3 0-0.7-0.1-0.4 0-0.5-0.4-0.3-0.9-0.5-2-0.1-1-0.2-2.2-0.1-1.1-0.2-2.3 0-1.1 0-2z"/>
	<path id="Layer copy 3" fill-rule="evenodd" class="s0" d="m9.8 49.7q0-0.1 0.1-0.7 0-0.5 0.1-1.3 0.1-0.7 0.2-1.6 0.1-0.9 0.2-1.7 0.1-0.8 0.2-1.4 0.1-0.6 0.1-0.8-0.2-0.1-0.3-0.2-0.2-0.1-0.2-0.2 0-0.2 0.2-0.3 0.2-0.2 0.3-0.2 0.1-0.8 0.2-2.1 0.1-1.3 0.3-2.9 0.1-1.5 0.5-3.1 0.3-1.6 0.8-2.9 0.6-1.3 1.3-2.1 0.8-0.8 1.9-0.8 1.1 0 1.9 0.7 0.7 0.7 1.2 1.8 0.4 1.1 0.7 2.5 0.2 1.4 0.3 2.7 0.2 1.4 0.2 2.6 0 1.2 0 1.9 0.1 0.4 0.3 0.6 0.2 0.1 0.4 0.2 0.2 0.1 0.4 0.1 0.2 0.1 0.2 0.4 0 0.3-0.4 0.5-0.4 0.1-0.7 0.1 0.2 1.9 0.4 3.6 0.3 1.8 0.7 3.6 0.1 0.3 0.2 0.7 0.1 0.3 0.1 0.7 0 0.2-0.2 0.3-0.2 0.2-0.4 0.3-0.3 0.1-0.5 0.1-0.3 0-0.5 0-0.6 0-1.1-0.2-0.4-0.3-0.6-1-0.4-1.9-0.7-3.9-0.4-1.8-0.4-3.5 0-0.3 0-0.6-1.2 0-2.4 0.1-1.3 0.1-2.4 0.4 0 0.4-0.2 1.5-0.1 1.1-0.2 2.4-0.2 1.2-0.3 2.4-0.2 1.1-0.2 1.6 0 0.2-0.3 0.4-0.3 0.2-0.6 0.2-0.3 0-0.6-0.2-0.2-0.2-0.2-0.7zm2.7-8.9q1.2-0.3 2.3-0.3 1.2-0.1 2.4-0.1-0.1-0.4-0.1-0.8 0.1-0.4 0.1-0.8 0-0.8-0.1-2 0-1.1-0.1-2.3-0.1-1.2-0.2-2.3-0.2-1.1-0.4-2-0.1-0.9-0.3-1.4-0.2-0.6-0.5-0.6-0.4 0.1-0.8 0.8-0.4 0.8-0.8 1.9-0.3 1.2-0.6 2.7-0.2 1.4-0.4 2.8-0.2 1.4-0.3 2.5-0.1 1.2-0.2 1.9zm12.1-0.5q0-1.1 0.1-2.7 0.1-1.6 0.2-3.4 0.1-1.7 0.3-3.3 0.2-1.5 0.5-2.4 0-0.3 0.4-0.4 0.3-0.1 0.6-0.1 0.5 0 0.8 0.2 0.3 0.1 0.3 0.7 0 2.6-0.3 5.3-0.3 2.7-0.3 5.4 0.4-0.7 1.1-1.1 0.7-0.3 1.6-0.3 1.1 0 1.9 0.4 0.8 0.5 1.3 1.2 0.5 0.7 0.7 1.7 0.3 0.9 0.3 1.9 0 0.5-0.2 1.3-0.1 0.9-0.3 1.8-0.2 0.9-0.5 1.7-0.4 0.9-0.8 1.6-0.5 0.7-1.1 1.2-0.6 0.4-1.3 0.4-0.2 0-0.4 0-0.2-0.1-0.5-0.2-0.2-0.1-0.4-0.2-0.2-0.1-0.2-0.3 0-0.3 0.3-0.4 0.3-0.1 0.5-0.1 0.7-0.3 1.2-1.2 0.5-0.9 0.8-2 0.4-1.1 0.5-2.2 0.2-1.1 0.2-1.8 0-0.4-0.1-1.1-0.1-0.6-0.4-1.3-0.2-0.6-0.6-1.1-0.4-0.5-1-0.5-0.7 0-1.1 0.8-0.4 0.7-0.6 1.6-0.3 1-0.4 2 0 1 0 1.5 0 0.4 0.1 0.8 0.1 0.3 0.3 0.7 0.1 0.3 0.3 0.7 0.1 0.4 0.1 0.7 0 0.2-0.2 0.3-0.1 0.2-0.3 0.2-0.2 0.1-0.5 0.1-0.2 0-0.3 0-0.8 0-1.2-0.3-0.3-0.4-0.5-1.2-0.5-1.6-0.7-3.3-0.2-1.6-0.2-3.3zm12.5 5.8v-1.3q0-0.8 0-2.2 0-1.3 0.1-3 0-1.6 0.1-3.4 0.2-1.7 0.3-3.3 0.1-1.6 0.3-2.8 0.2-1.3 0.4-1.9 0.2-0.3 0.5-0.4 0.3-0.1 0.7-0.1 0.5 0 0.9 0.2 0.3 0.3 0.3 0.9l-0.2 0.3q-0.5 3.3-0.7 6.7-0.1 3.5-0.2 6.9 0.4-0.6 0.8-1.1 0.5-0.6 1.1-1 0.5-0.4 1.2-0.7 0.6-0.3 1.4-0.3 1 0 1.7 0.6 0.6 0.6 1 1.6 0.5 1 0.7 2.2 0.2 1.1 0.3 2.3 0.1 1.2 0.1 2.3 0.1 1 0.2 1.7-0.3 0.4-0.8 0.4h-0.1q-0.2 0-0.5 0-0.3-0.1-0.4-0.3h0.1q-0.2-0.5-0.3-1.3-0.1-0.9-0.1-1.9-0.1-1-0.2-2.1-0.1-1.1-0.3-2-0.2-0.9-0.7-1.4-0.4-0.6-1.1-0.6h-0.1q-0.9 0-1.4 0.5-0.7 0.5-1 1.5-0.4 0.9-0.6 2-0.2 1.1-0.3 2.1-0.2 1.1-0.2 1.9-0.1 0.8-0.2 1.2 0 0.4-0.5 0.5-0.4 0.1-0.7 0.1-0.7 0-1.2-0.4-0.3-0.8-0.4-2 0-1.2 0-2.4zm14-1.9q0-1.4 0.3-2.7 0.3-1.3 0.5-2.5 0.1-0.4 0.5-0.5 0.4 0 0.7 0 0.4 0 0.7 0.1 0.2 0.1 0.3 0.1 0.1 0.1 0.1 0.2 0 1.3-0.3 2.5-0.3 1.2-0.3 2.5 0 0.5 0 0.9 0.1 0.4 0.2 0.8v0.4q0 0.1 0.1 0.2 0 0.1 0 0.2 0 0.3-0.4 0.4-0.3 0.1-0.6 0.1-0.5 0-0.8-0.2-0.4-0.2-0.6-0.6l-0.2-0.4q-0.2-0.3-0.2-0.7 0-0.5 0-0.8zm0.9-8.8v-0.3q0-0.7 0.4-1.2 0.3-0.6 1-0.6 0.1 0 0.2 0 0 0 0.1 0 0.2 0.1 0.5 0.2 0.3 0.1 0.3 0.3v0.1q-0.1 0.1-0.1 0.2 0 0.1-0.1 0.2h0.1q-0.2 0.4-0.3 0.7-0.1 0.3-0.3 0.5-0.1 0.1-0.3 0.2-0.2 0.1-0.6 0.1 0 0-0.2 0-0.1-0.1-0.3-0.1-0.2 0-0.3-0.1-0.1-0.1-0.1-0.2zm5.5 5.4q0-0.6 0.3-1.1 0.4-0.4 0.9-0.7 0.5-0.3 1.1-0.4 0.6-0.1 1.1-0.1 0.4 0 1 0.1 0.7 0.1 1.3 0.4 0.7 0.2 1.1 0.6 0.5 0.4 0.5 0.9 0 0.2-0.2 0.4-0.2 0.2-0.4 0.2-0.3 0-0.7-0.3-0.3-0.2-0.6-0.5-0.4-0.3-0.8-0.6-0.4-0.2-0.9-0.2-0.5 0-0.9 0.3-0.5 0.3-0.5 0.9 0 0.9 0.7 1.7 0.6 0.9 1.4 1.8 0.7 1 1.3 2 0.7 1 0.7 2.3 0 0.5-0.3 0.9-0.2 0.4-0.6 0.6-0.3 0.3-0.8 0.4-0.5 0.1-0.9 0.1-0.5 0-1.1-0.2-0.7-0.2-1.3-0.6-0.5-0.4-0.9-0.9-0.4-0.5-0.4-1 0-0.3 0.4-0.4 0.3 0 0.5 0 0.1 0 0.3 0 0.2 0.1 0.4 0.2 0.1 0 0.3 0.1 0.1 0.1 0.1 0.2 0.1 0.2 0.4 0.5 0.3 0.4 0.6 0.6 0.3 0.2 0.6 0.1 0.2 0 0.2-0.6 0-1.2-0.6-2.1-0.7-1-1.4-1.9-0.7-0.9-1.3-1.8-0.6-0.9-0.6-1.9zm10.3 5.3v-1.3q0-0.8 0-2.2 0.1-1.3 0.1-3 0.1-1.6 0.2-3.4 0.1-1.7 0.2-3.3 0.1-1.6 0.3-2.8 0.2-1.3 0.4-1.9 0.2-0.3 0.5-0.4 0.4-0.1 0.7-0.1 0.5 0 0.9 0.2 0.4 0.3 0.4 0.9l-0.3 0.3q-0.5 3.3-0.6 6.7-0.2 3.5-0.2 6.9 0.3-0.6 0.8-1.1 0.4-0.6 1-1 0.6-0.4 1.2-0.7 0.7-0.3 1.4-0.3 1 0 1.7 0.6 0.6 0.6 1.1 1.6 0.4 1 0.6 2.2 0.2 1.1 0.3 2.3 0.1 1.2 0.2 2.3 0 1 0.1 1.7-0.3 0.4-0.8 0.4h-0.1q-0.2 0-0.5 0-0.3-0.1-0.3-0.3-0.2-0.5-0.3-1.3-0.1-0.9-0.1-1.9 0-1-0.2-2.1-0.1-1.1-0.3-2-0.2-0.9-0.6-1.4-0.5-0.6-1.2-0.6h-0.1q-0.8 0-1.4 0.5-0.6 0.5-1 1.5-0.4 0.9-0.6 2-0.2 1.1-0.3 2.1-0.1 1.1-0.2 1.9 0 0.8-0.1 1.2-0.1 0.4-0.5 0.5-0.5 0.1-0.8 0.1-0.7 0-1.2-0.4-0.3-0.8-0.4-2 0-1.2 0-2.4zm14-1q0-1 0.2-2.4 0.3-1.4 0.8-2.6 0.5-1.3 1.4-2.1 0.9-0.9 2.3-0.9 1.2 0 1.9 0.7 0.6 0.7 0.6 2 0 0.8-0.3 1.7-0.3 1-0.9 1.9-0.5 0.8-1.3 1.4-0.8 0.6-1.7 0.6l-0.4-0.1q0 0.4 0.1 1.1 0.2 0.7 0.4 1.3 0.2 0.7 0.6 1.2 0.3 0.5 0.8 0.5 0.8 0 1.5-0.6 0.7-0.6 1.3-1.4 0.6-0.7 1.1-1.3 0.6-0.6 1-0.6 0.2 0 0.5 0.1 0.2 0 0.3 0.4 0 0.2-0.2 0.3-0.1 0.2-0.2 0.3-0.4 0.8-0.9 1.5-0.6 0.7-1.3 1.3-0.6 0.5-1.4 0.9-0.8 0.3-1.8 0.3-1.2 0-2.1-0.4-0.8-0.5-1.3-1.2-0.5-0.8-0.8-1.8-0.2-1-0.2-2.1zm2.6-1.1l0.4 0.4q0.3 0.3 0.6 0.1 0.3-0.1 0.5-0.5 0.3-0.4 0.5-1 0.2-0.6 0.3-1.2 0.2-0.6 0.3-1.1 0-0.6 0-1v-0.5q0 0 0-0.5-0.1-0.5-0.2-0.4-0.1 0.1-0.3-0.2-0.1-0.1-0.1-0.1-0.5 0-0.9 0.7-0.4 0.7-0.6 1.7-0.2 1-0.3 2-0.1 1.1-0.2 1.6zm9.6 6.5l0.4-0.4q-0.1-2.4-0.2-4.9-0.1-2.4-0.1-4.9 0-3 0.4-5.8 0.4-2.8 0.7-5.7 0-0.2 0.2-0.3 0.1-0.1 0.3-0.2 0.2-0.1 0.4-0.1 0.3 0 0.4 0 0.3 0 0.6 0.1 0.4 0.1 0.7 0.5 0 0.1 0 0.2 0.1 0.2 0.1 0.3 0 1.1-0.3 2.4-0.3 1.3-0.4 2.4-0.2 1.5-0.2 2.9 0 1.4 0 2.8v1.3q0.3-0.3 0.8-0.9 0.6-0.6 1.2-1.1 0.6-0.6 1.3-0.9 0.6-0.4 1.1-0.4 0.8 0 1.1 0.4 0.3 0.5 0.3 1.2 0 0.6-0.3 1.4-0.3 0.7-0.8 1.4-0.4 0.6-1 1.2-0.6 0.5-1.2 0.8 0.8 1 1.6 1.8 0.8 0.9 1.8 1.7v0.3q0 0.2-0.2 0.2-0.1 0.1-0.3 0.2-0.2 0-0.4 0-0.1 0-0.3 0-0.7 0-1.3-0.4-0.7-0.4-1.3-1-0.6-0.6-1.1-1.3-0.5-0.7-0.9-1.2 0.1 1.7 0.2 3.3 0.1 1.7 0.1 3.4 0 0.2-0.2 0.3-0.2 0.2-0.4 0.3-0.3 0-0.5 0.1-0.3 0-0.4 0-0.9 0-1.2-0.3-0.4-0.3-0.7-1.1zm3-6.9q0.4 0 0.9-0.3 0.5-0.3 1.1-0.8 0.5-0.5 1-1 0.4-0.5 0.7-1 0.3-0.5 0.3-0.7 0-0.3-0.4-0.3-0.1 0-0.6 0.4-0.4 0.4-1 1.1-0.5 0.6-1.1 1.3-0.6 0.7-0.9 1.3zm14.6-2.8q0-2.5 0.2-5 0.1-2.5 0.3-5 0.1-0.6 0.1-1.2 0-0.7 0.1-1.1 0.1-0.5 0.4-0.8 0.4-0.2 1-0.2 0.4 0 0.9 0.1 0.5 0.2 0.5 0.7 0 2-0.2 4-0.2 2-0.2 3.9 1.6-1.8 3.4-3.3 1.8-1.6 3.8-3.1 0.3-0.2 0.8-0.2 0.1 0 0.2 0 0.2 0 0.3 0 0.1 0.1 0.3 0.2 0.1 0 0.1 0.2 0 0.1-0.1 0.2-1.5 1.2-3 2.5-1.5 1.3-2.9 2.7 0.2 0.4 0.3 0.7 0.2 0.2 0.3 0.6 1.2 2.9 2.1 6 0.9 3 1.9 6 0.1 0.3 0.2 0.7 0.2 0.4 0.3 0.7 0.2 0.4 0.3 0.7 0.1 0.3 0.1 0.5 0 0.3-0.2 0.4-0.1 0.2-0.3 0.3-0.3 0.1-0.5 0.1-0.3 0-0.5 0-0.5 0-0.9-0.1-0.4-0.2-0.6-0.7-1.1-3.4-2.1-6.9-1-3.5-2.1-7-0.3 0.4-0.6 0.9-0.4 0.5-0.7 0.9 0 2.2 0.1 4.4 0.2 2.1 0.4 4.3 0.1 0.7 0.2 1.3 0.1 0.6 0.1 1.3 0 0.5-0.5 0.7-0.5 0.1-1.1 0.1-0.6 0-0.9-0.1-0.4-0.1-0.5-0.3-0.2-0.2-0.2-0.5 0-0.3-0.1-0.5-0.3-2.3-0.4-4.6-0.1-2.2-0.1-4.5zm14.4 2.4q0-0.2 0.1-0.7 0.1-0.5 0.1-1 0.1-0.5 0.2-0.9 0.2-0.4 0.3-0.5 0.1-0.1 0.4-0.2 0.3-0.2 0.6-0.2 0.3-0.1 0.6 0 0.3 0.1 0.3 0.4-0.2 0.3-0.3 0.9-0.2 0.7-0.3 1.4-0.1 0.7-0.1 1.4v0.3q0.1 0.8 0.2 1.5 0.1 0.6 0.4 1.1 0.3 0.4 0.7 0.4 1.1 0 1.9-0.9 0.9-0.9 1.5-2.3 0.7-1.4 1.2-2.9 0.5-1.5 0.8-2.7 0.1-0.3 0.5-0.4 0.3-0.1 0.7-0.1 0.3 0 0.6 0.2 0.3 0.1 0.4 0.3-0.3 2.5-0.5 4.9-0.1 2.5-0.1 5 0 0.5 0 0.9 0.1 0.4 0 0.7-0.1 0.3-0.4 0.4-0.3 0.2-1 0.2-0.1 0-0.3 0-0.3-0.1-0.5-0.1-0.3-0.1-0.4-0.2-0.2-0.2-0.2-0.3 0-1.1 0.1-2.3 0.1-1.1 0.2-2.2-0.4 0.6-0.9 1.2-0.4 0.5-1 1-0.6 0.4-1.2 0.7-0.7 0.3-1.5 0.3-1 0-1.7-0.5-0.6-0.5-0.9-1.3-0.3-0.8-0.4-1.7-0.1-0.9-0.1-1.8zm13.8-2.3q0-0.5 0.1-0.9 0.1-0.4 0.4-0.7 0.3-0.3 0.9-0.3 0.1 0 0.4 0.1 0.2 0 0.4 0.1 0.2 0 0.3 0.2 0.2 0.1 0.2 0.3v1.6q0.5-0.6 1.2-0.9 0.7-0.3 1.5-0.3 0.7 0 1.3 0.3 0.7 0.3 1.3 0.8 0.5 0.5 0.9 1.1 0.5 0.6 0.7 1.2 0.1-0.5 0.2-1.3 0.2-0.8 0.4-1.5 0.3-0.7 0.8-1.3 0.5-0.5 1.2-0.5 0.9 0 1.5 0.6 0.5 0.6 0.9 1.6 0.3 0.9 0.5 2.1 0.2 1.2 0.3 2.4 0.1 1.1 0.1 2.1v1.6q0 0.2-0.1 0.3-0.2 0.1-0.4 0.2-0.2 0-0.4 0-0.2 0.1-0.3 0.1-0.5 0-0.8-0.2-0.4-0.1-0.4-0.7v-1.3q0 0 0-1.7-0.1-1.7-0.1-1.9-0.1-0.1-0.2-1.6-0.2-1.6-0.3-1.2-0.2 0.3-0.5-0.5-0.4 0-0.5 0.4-0.2 0.4-0.3 1.1-0.1 0.6-0.2 1.3 0 0.7-0.1 1.3-0.1 0.7-0.3 1.1-0.3 0.4-0.7 0.4-0.4 0-0.7-0.4-0.3-0.4-0.7-1-0.3-0.6-0.6-1.3-0.3-0.7-0.7-1.3-0.4-0.6-0.8-1-0.4-0.4-0.9-0.4h-0.1q-0.6 0.1-1 0.5-0.4 0.5-0.6 1.1-0.2 0.6-0.2 1.4-0.1 0.7-0.1 1.3 0 0.5 0.1 1.2 0.1 0.5 0.1 0.9 0 0.2 0 0.4-0.1 0.6-0.4 1.1-0.2 0.4-1 0.4-0.3 0-0.7-0.1-0.5 0-0.6-0.4-0.4-0.6-0.5-1.5-0.2-0.9-0.3-1.9-0.1-1-0.1-1.9 0-1 0-1.7 0-0.4-0.1-0.9zm18.5 3.6q0-1 0.3-1.9 0.3-0.9 0.8-1.6 0.5-0.8 1.4-1.2 0.8-0.4 1.8-0.4 0.7 0 1.5 0.2 0.8 0.2 1.5 0.6 0.7 0.4 1.2 1 0.4 0.6 0.4 1.3 0 0.4-0.1 0.6-0.1 0.2-0.5 0.2l-0.2-0.1q0.5 1.2 0.8 2.4 0.3 1.2 0.6 2.4 0.1 0.2 0.2 0.4 0 0.2 0 0.4 0 0.2-0.1 0.4-0.2 0.1-0.4 0.2-0.2 0.1-0.4 0.1-0.2 0-0.4 0-0.6 0-1-0.2-0.3-0.2-0.4-0.6-0.1-0.4-0.2-0.9 0-0.4-0.1-0.9-0.2 0.6-0.5 1.1-0.2 0.5-0.6 1-0.4 0.4-0.9 0.7-0.6 0.2-1.2 0.2-1 0-1.7-0.5-0.6-0.6-1-1.4-0.4-0.8-0.6-1.8-0.2-0.9-0.2-1.7zm2.1-0.2q0 0.6 0.1 1.2 0 0.6 0.2 1.2 0.2 0.5 0.4 1.1 0.3 0.5 0.7 0.9 0.7-0.8 1.1-1.9 0.3-1.1 0.6-2.2 0.2-1 0.6-1.7 0.3-0.8 1.1-0.8 0.4 0 0.7 0.2-0.1-0.4-0.5-0.7-0.3-0.4-0.7-0.6-0.4-0.3-0.9-0.5-0.4-0.2-0.8-0.2-0.1 0-0.3 0-0.2 0.1-0.2 0-0.6 0.2-1 0.7-0.4 0.4-0.7 1-0.2 0.6-0.3 1.2-0.1 0.6-0.1 1.1zm10.6-3.9q0-0.6 0.2-1 0.2-0.4 0.9-0.4 0.3 0 0.7 0.1 0.4 0.1 0.4 0.4 0.2 0.9 0.2 1.9 0 1 0.1 1.9 0.3-0.7 0.9-1.4 0.5-0.8 1.2-1.5 0.6-0.6 1.4-1 0.8-0.4 1.6-0.4 0.1 0 0.3 0 0.1 0 0.3 0.1 0.1 0.1 0.1 0.2 0.1 0.1-0.1 0.2-0.1 0.2-0.3 0.2-0.2 0-0.3 0-0.1 0-0.3 0-1.1 0.5-1.8 1.5-0.8 1-1.3 2.2-0.5 1.2-0.7 2.5-0.2 1.3-0.2 2.6 0 0.6-0.3 0.8-0.3 0.1-0.9 0.1-0.3 0-0.7-0.1-0.4 0-0.5-0.4-0.3-0.9-0.5-2-0.1-1-0.2-2.2-0.1-1.1-0.2-2.3 0-1.1 0-2z"/>
	<path id="Layer copy 2" class="s1" d=""/>
	<path id="Layer copy" class="s1" d=""/>
	<path id="Layer copy 4" class="s1" d=""/>
</svg>